<?xml version="1.0" encoding="UTF-8" standalone="no"?>
<!-- Created with Inkscape (http://www.inkscape.org/) -->

<svg
   width="132.82454mm"
   height="183.13205mm"
   viewBox="-46.366 -53.116 182.732 96.257"
   version="1.1"
   id="svg5"
   inkscape:version="1.1.2 (0a00cf5339, 2022-02-04)"
   sodipodi:docname="tile3.svg"
   xmlns:inkscape="http://www.inkscape.org/namespaces/inkscape"
   xmlns:sodipodi="http://sodipodi.sourceforge.net/DTD/sodipodi-0.dtd"
   xmlns="http://www.w3.org/2000/svg"
   xmlns:svg="http://www.w3.org/2000/svg">
  <sodipodi:namedview
     id="namedview7"
     pagecolor="#ffffff"
     bordercolor="#666666"
     borderopacity="1.0"
     inkscape:pageshadow="2"
     inkscape:pageopacity="0.0"
     inkscape:pagecheckerboard="0"
     inkscape:document-units="mm"
     showgrid="true"
     inkscape:snap-bbox="true"
     inkscape:snap-center="true"
     fit-margin-top="0.2"
     lock-margins="true"
     fit-margin-left="0.2"
     fit-margin-right="0.2"
     fit-margin-bottom="0.2"
     inkscape:zoom="1.9426985"
     inkscape:cx="265.8673"
     inkscape:cy="397.38539"
     inkscape:window-width="1920"
     inkscape:window-height="1043"
     inkscape:window-x="0"
     inkscape:window-y="0"
     inkscape:window-maximized="1"
     inkscape:current-layer="dungeon"
     inkscape:snap-page="true"
     inkscape:snap-grids="false">
    <inkscape:grid
       type="axonomgrid"
       id="grid826"
       empcolor="#03ff92"
       empopacity="0.25098039"
       empspacing="6"
       spacingy="3.333331"
       originx="136.36608"
       originy="50.033841"
       gridanglex="60"
       gridanglez="60" />
  </sodipodi:namedview>
  <defs
     id="defs2" />
  <g
     inkscape:label="Layer 1"
     inkscape:groupmode="layer"
     id="layer1"
     transform="translate(-24.414737,76.566026)">
    <g
       id="g1594"
       inkscape:transform-center-x="-38.971142"
       inkscape:transform-center-y="-44.999997">
      <g
         id="g443"
         transform="matrix(0,-1,-1,0,84.414762,27.357029)"
         inkscape:transform-center-x="2.3241212"
         inkscape:transform-center-y="12.990389">
        <path
           style="opacity:1;fill:#e6e6e6;stroke:none;stroke-width:2;stroke-opacity:1;stop-color:#000000"
           d="M 103.92305,59.999998 129.90381,105 155.88457,89.999999 V 30 l -25.98076,-15 25.98076,-45 -25.98076,-45 -25.98076,15.000002 V -30 H 51.961523 L 25.980762,15 51.961523,30 v 29.999998 z"
           id="border"
           sodipodi:nodetypes="cccccccccccccc" />
        <g
           id="dungeon">
          <g
             id="g1119">
            <path
               style="fill:#afdde9;stroke-width:0.687869;stop-color:#000000"
               d="M 155.88457,29.999997 129.90381,14.999996 H 25.980762 L 51.961524,29.999997 H 155.88457"
               id="path998" />
          </g>
          <path
             id="path1227"
             style="fill:#ffffff;stroke:none;stroke-width:1.37574;stop-color:#000000"
             d="M 34.126534,0.22293001 86.474286,30.445916 69.025035,40.520247 V 60.668905 H 86.474286 V 50.594574 l 17.449254,-10.074327 17.44925,10.074327 v 20.14866 l -8.72463,5.037164 8.72463,15.111495 17.44925,-10.07433 V 40.520247 L 86.474285,10.297262 v -40.297317 l -17.44925,-4e-6 V 0.22293001 L 42.851161,-14.888566"
             sodipodi:nodetypes="cccccccccccccccccc" />
          <path
             id="path1858"
             style="fill:none;stroke:#000000;stroke-width:1.37574;stop-color:#000000"
             d="M 69.025035,-30.000059 V 0.22293001 L 42.851161,-14.888566 M 69.025035,60.668905 V 40.520247 L 86.474286,30.445916 34.126534,0.22293001 M 121.37279,90.891893 138.82204,80.817563 V 40.520247 L 86.474285,10.297262 v -40.297317 m 26.173875,105.780453 8.72463,-5.037164 V 50.594574 L 103.92354,40.520247 86.474286,50.594574 v 10.074331" />
          <path
             style="fill:#ffffff;stroke:#000000;stroke-width:1.37574;stop-color:#000000"
             d="m 138.82204,-60.223049 -13.08694,7.555747 v 10.074331 l 8.72462,5.037165 13.08694,-7.555746"
             id="path1860" />
          <path
             style="fill:#ffffff;stroke:#000000;stroke-width:1.37574;stop-color:#000000"
             d="M 138.82204,0.22293001 134.45972,-2.2956546 121.37279,20.371588 95.198913,5.2600919 V -24.962894 h 34.898497 l 17.44925,10.074328"
             id="path1862" />
          <circle
             style="fill:#999999;stroke:#000000;stroke-width:0.68787;stop-color:#000000"
             id="use8654"
             cx="34.113014"
             cy="-131.71667"
             r="4.87637"
             transform="matrix(0,-1,-1,0,0,0)" />
          <circle
             style="fill:#999999;stroke:#000000;stroke-width:0.68787;stop-color:#000000"
             id="use8656"
             cx="27.572336"
             cy="-128.25946"
             r="4.87637"
             transform="matrix(0,-1,-1,0,0,0)" />
          <circle
             style="fill:#999999;stroke:#000000;stroke-width:0.68787;stop-color:#000000"
             id="use8658"
             cx="27.671867"
             cy="-114.51533"
             r="4.87637"
             transform="matrix(0,-1,-1,0,0,0)" />
          <circle
             style="fill:#999999;stroke:#000000;stroke-width:0.68787;stop-color:#000000"
             id="use8660"
             cx="31.579321"
             cy="-116.06993"
             r="4.87637"
             transform="matrix(0,-1,-1,0,0,0)" />
          <circle
             style="fill:#999999;stroke:#000000;stroke-width:0.68787;stop-color:#000000"
             id="use8664"
             cx="49.009155"
             cy="-117.64738"
             r="4.87637"
             transform="matrix(0,-1,-1,0,0,0)" />
          <circle
             style="fill:#999999;stroke:#000000;stroke-width:0.68787;stop-color:#000000"
             id="use8666"
             cx="27.723099"
             cy="-121.50102"
             r="4.87637"
             transform="matrix(0,-1,-1,0,0,0)" />
          <circle
             style="fill:#999999;stroke:#000000;stroke-width:0.68787;stop-color:#000000"
             id="use8668"
             cx="37.643856"
             cy="-126.90459"
             r="4.87637"
             transform="matrix(0,-1,-1,0,0,0)" />
          <circle
             style="fill:#999999;stroke:#000000;stroke-width:0.68787;stop-color:#000000"
             id="use8672"
             cx="53.670322"
             cy="-125.28686"
             r="4.87637"
             transform="matrix(0,-1,-1,0,0,0)" />
          <circle
             style="fill:#999999;stroke:#000000;stroke-width:0.68787;stop-color:#000000"
             id="use8674"
             cx="46.995537"
             cy="-126.90134"
             r="4.87637"
             transform="matrix(0,-1,-1,0,0,0)" />
          <circle
             style="fill:#999999;stroke:#000000;stroke-width:0.68787;stop-color:#000000"
             id="use8678"
             cx="38.839722"
             cy="-114.74704"
             r="4.87637"
             transform="matrix(0,-1,-1,0,0,0)" />
          <circle
             style="fill:#999999;stroke:#000000;stroke-width:0.68787;stop-color:#000000"
             id="use8680"
             cx="35.147522"
             cy="-123.31303"
             r="4.87637"
             transform="matrix(0,-1,-1,0,0,0)" />
          <circle
             style="fill:#999999;stroke:#000000;stroke-width:0.68787;stop-color:#000000"
             id="use8682"
             cx="43.849873"
             cy="-120.21757"
             r="4.87637"
             transform="matrix(0,-1,-1,0,0,0)" />
        </g>
      </g>
    </g>
  </g>
</svg>
