<?xml version="1.0" encoding="UTF-8" standalone="no"?>
<!-- Created with Inkscape (http://www.inkscape.org/) -->

<svg
   width="132.82454mm"
   height="183.13205mm"
   viewBox="-46.366 -53.116 182.732 96.257"
   version="1.1"
   id="svg5"
   inkscape:version="1.1.2 (0a00cf5339, 2022-02-04)"
   sodipodi:docname="tile1.svg"
   xmlns:inkscape="http://www.inkscape.org/namespaces/inkscape"
   xmlns:sodipodi="http://sodipodi.sourceforge.net/DTD/sodipodi-0.dtd"
   xmlns="http://www.w3.org/2000/svg"
   xmlns:svg="http://www.w3.org/2000/svg">
  <sodipodi:namedview
     id="namedview7"
     pagecolor="#ffffff"
     bordercolor="#666666"
     borderopacity="1.0"
     inkscape:pageshadow="2"
     inkscape:pageopacity="0.0"
     inkscape:pagecheckerboard="0"
     inkscape:document-units="mm"
     showgrid="false"
     inkscape:snap-bbox="true"
     inkscape:snap-center="true"
     fit-margin-top="0.2"
     lock-margins="true"
     fit-margin-left="0.2"
     fit-margin-right="0.2"
     fit-margin-bottom="0.2"
     inkscape:zoom="1.9426985"
     inkscape:cx="277.19175"
     inkscape:cy="368.81688"
     inkscape:window-width="1850"
     inkscape:window-height="1016"
     inkscape:window-x="1990"
     inkscape:window-y="27"
     inkscape:window-maximized="1"
     inkscape:current-layer="dungeon"
     inkscape:snap-page="true"
     inkscape:snap-grids="false">
    <inkscape:grid
       type="axonomgrid"
       id="grid826"
       empcolor="#03ff92"
       empopacity="0.25098039"
       empspacing="6"
       spacingy="10"
       originx="-24.414737"
       originy="76.566023" />
  </sodipodi:namedview>
  <defs
     id="defs2" />
  <g
     inkscape:label="Layer 1"
     inkscape:groupmode="layer"
     id="layer1"
     transform="translate(-24.414737,76.566026)">
    <g
       id="g1594"
       inkscape:transform-center-x="-38.971142"
       inkscape:transform-center-y="-44.999997">
      <g
         id="g443"
         transform="matrix(0,-1,-1,0,84.414762,27.357029)"
         inkscape:transform-center-x="2.3241212"
         inkscape:transform-center-y="12.990389">
        <path
           style="opacity:1;fill:#e6e6e6;stroke:none;stroke-width:2;stroke-opacity:1;stop-color:#000000"
           d="m 103.92354,60.786574 26.20784,45.393316 26.20784,-15.131106 0,-60.52442 -26.20784,-15.131104 26.20784,-45.393315 -26.20784,-45.393315 -26.20784,15.131105 0,30.26221 H 51.507851 l -26.207842,45.393315 26.207842,15.131104 0,30.26221 z"
           id="border"
           sodipodi:nodetypes="cccccccccccccc" />
        <path
           style="fill:#afdde9;stroke-width:0.687869;stop-color:#000000"
           d="M 155.88457,29.999997 129.90381,14.999996 H 25.980762 L 51.961524,29.999997 H 155.88457"
           id="path998" />
        <g
           id="dungeon">
          <path
             id="path1496"
             style="opacity:1;fill:#ffffff;stroke:none;stroke-width:1;stroke-opacity:1;stop-color:#000000"
             d="M 69.282031,59.999998 V 20 L 34.641017,0 43.301269,-15 69.282031,0 V -30 H 86.60254 v 20 l 34.64101,-20 v -20 l 17.32051,-9.999998 8.66026,14.999999 -8.66026,5 V -20 l 8.66026,5 -8.66026,15 -17.32051,-10 -34.64101,20 51.96152,29.999999 V 79.999998 L 121.24355,89.999999 112.5833,75 121.24355,69.999999 V 50 L 86.60254,30 v 29.999998"
             sodipodi:nodetypes="cccccccccccccccccccccccccc" />
          <path
             id="path627"
             style="opacity:1;fill:none;stroke:#000000;stroke-width:1.37573976;stroke-opacity:1;stop-color:#000000"
             d="M 69.282031,59.999998 V 20 L 34.641017,2.6126514e-8 M 43.301269,-15 69.282031,2.6126514e-8 V -30 m 17.320509,0 V -9.9999998 L 121.24355,-30 v -20 l 17.32051,-9.999998 m 8.66026,14.999999 -8.66026,5 V -20 l 8.66026,5 M 138.56406,2.6126514e-8 121.24355,-9.9999998 86.60254,10 138.56406,39.999999 V 79.999998 L 121.24355,89.999999 M 112.5833,75 121.24355,69.999999 V 50 L 86.60254,30 v 29.999998"
             sodipodi:nodetypes="cccccccccccccccccccccccccc" />
        </g>
      </g>
    </g>
  </g>
</svg>
