<?xml version="1.0" encoding="UTF-8" standalone="no"?>
<!-- Created with Inkscape (http://www.inkscape.org/) -->

<svg
   width="132.82454mm"
   height="183.13205mm"
   viewBox="-46.366 -53.116 182.732 96.257"
   version="1.1"
   id="svg5"
   inkscape:version="1.1.2 (0a00cf5339, 2022-02-04)"
   sodipodi:docname="tile2.svg"
   xmlns:inkscape="http://www.inkscape.org/namespaces/inkscape"
   xmlns:sodipodi="http://sodipodi.sourceforge.net/DTD/sodipodi-0.dtd"
   xmlns="http://www.w3.org/2000/svg"
   xmlns:svg="http://www.w3.org/2000/svg">
  <sodipodi:namedview
     id="namedview7"
     pagecolor="#ffffff"
     bordercolor="#666666"
     borderopacity="1.0"
     inkscape:pageshadow="2"
     inkscape:pageopacity="0.0"
     inkscape:pagecheckerboard="0"
     inkscape:document-units="mm"
     showgrid="false"
     inkscape:snap-bbox="true"
     inkscape:snap-center="true"
     fit-margin-top="0.2"
     lock-margins="true"
     fit-margin-left="0.2"
     fit-margin-right="0.2"
     fit-margin-bottom="0.2"
     inkscape:zoom="1.9426985"
     inkscape:cx="320.43057"
     inkscape:cy="380.91345"
     inkscape:window-width="1920"
     inkscape:window-height="1043"
     inkscape:window-x="0"
     inkscape:window-y="0"
     inkscape:window-maximized="1"
     inkscape:current-layer="dungeon"
     inkscape:snap-page="true">
    <inkscape:grid
       type="axonomgrid"
       id="grid826"
       empcolor="#03ff92"
       empopacity="0.25098039"
       empspacing="6"
       spacingy="3.333331"
       originx="136.36608"
       originy="50.033841"
       gridanglex="60"
       gridanglez="60" />
  </sodipodi:namedview>
  <defs
     id="defs2" />
  <g
     inkscape:label="Layer 1"
     inkscape:groupmode="layer"
     id="layer1"
     transform="translate(-24.414737,76.566026)">
    <g
       id="g1594"
       inkscape:transform-center-x="-38.971142"
       inkscape:transform-center-y="-44.999997">
      <g
         id="g443"
         transform="matrix(0,-1,-1,0,84.414762,27.357029)"
         inkscape:transform-center-x="2.3241212"
         inkscape:transform-center-y="12.990389">
        <path
           style="opacity:1;fill:#e6e6e6;stroke:none;stroke-width:2;stroke-opacity:1;stop-color:#000000"
           d="m 103.92354,60.786574 26.20784,45.393316 26.20784,-15.131106 0,-60.52442 -26.20784,-15.131104 26.20784,-45.393315 -26.20784,-45.393315 -26.20784,15.131105 0,30.26221 H 51.507851 l -26.207842,45.393315 26.207842,15.131104 0,30.26221 z"
           id="border"
           sodipodi:nodetypes="cccccccccccccc" />
        <g
           id="dungeon">
          <g
             id="g1119"
             transform="translate(-0.09606802,0.39017763)">
            <path
               style="fill:#afdde9;stroke-width:0.687869;stop-color:#000000"
               d="M 155.88457,29.999997 129.90381,14.999996 H 25.980762 L 51.961524,29.999997 H 155.88457"
               id="path998" />
          </g>
          <path
             style="fill:#ffffff;stroke:none;stroke-width:0.687869;stop-color:#000000"
             d="m 147.54666,-14.888566 -8.72462,-5.037166 V -40.07439 l 8.72462,-5.037162 -8.72462,-15.111497 -17.44925,10.074331 v 40.297317 l 17.44925,10.07433101 8.72462,-15.11149601"
             id="path1468" />
          <path
             id="path2298"
             style="fill:#ffffff;stroke:none;stroke-width:1.37574;stop-color:#000000"
             d="M 51.575908,10.297327 34.126534,0.22292637 42.851161,-14.88857 l 8.724543,5.0371181"
             sodipodi:nodetypes="cccc" />
          <path
             style="fill:#ffffff;stroke:none;stroke-width:1.37573976;stop-color:#000000"
             d="m 69.025035,-30.000059 v 10.074327 h -17.44925 v 40.29732 l 17.44925,25.185824 V 60.668905 H 86.474286 V 45.557412 H 112.64816 V -19.925732 H 86.474286 v -10.074327"
             id="path1536" />
          <path
             id="path2234"
             style="fill:none;stroke:#000000;stroke-width:3.77953;stop-color:#000000"
             transform="matrix(0,-0.36399781,-0.36399781,0,234.88158,106.36602)"
             d="m 263.92657,503.59004 27.67709,47.93813 m 41.51535,-23.9689 -13.83832,-23.96867" />
          <path
             id="path2232"
             style="fill:none;stroke:#000000;stroke-width:3.77952767;stop-color:#000000;stroke-miterlimit:4;stroke-dasharray:3.77952767,7.55905536;stroke-dashoffset:0"
             transform="matrix(0,-0.36399781,-0.36399781,0,234.88158,106.36602)"
             d="m 167.05883,335.81016 96.86774,167.77988 m 55.35412,5.6e-4 -96.86918,-167.78235" />
          <path
             id="path2468"
             style="fill:#ffffff;stroke:none;stroke-width:3.77953;stop-color:#000000"
             transform="matrix(0,-0.36399781,-0.36399781,0,234.88158,106.36602)"
             d="M 222.41151,335.80825 180.89608,263.90142 H 70.188504 l -27.676897,47.93779 41.515346,23.96891 13.838446,-23.96891 h 55.353791 l 13.83879,23.96949"
             sodipodi:nodetypes="cccccccc" />
          <path
             id="path2230"
             style="fill:none;stroke:#000000;stroke-width:3.77953;stop-color:#000000"
             d="M 167.05798 335.8087 L 167.05883 335.81016 "
             transform="matrix(0,-0.36399781,-0.36399781,0,234.88158,106.36602)" />
          <path
             id="path2228"
             style="fill:none;stroke:#000000;stroke-width:3.77953;stop-color:#000000"
             transform="matrix(0,-0.36399781,-0.36399781,0,234.88158,106.36602)"
             d="m 84.026953,335.80812 13.838446,-23.96891 h 55.353791 l 13.83879,23.96949 m 55.35353,-4.5e-4 -41.51543,-71.90683 H 70.188504 l -27.676897,47.93779" />
          <path
             style="fill:none;stroke:#000000;stroke-width:1.37573976;stop-color:#000000"
             d="m 147.54666,-14.888566 -8.72462,-5.037166 V -40.07439 l 8.72462,-5.037162 m -8.72462,-15.111497 -17.44925,10.074331 v 40.297317 l 17.44925,10.07433101"
             id="path1879"
             sodipodi:nodetypes="cccccccc" />
          <path
             style="fill:none;stroke:#000000;stroke-width:1.37574;stop-color:#000000"
             d="m 69.025035,-30.000059 v 10.074327 h -17.44925 v 40.29732 l 17.44925,25.185824 v 15.111493 m 17.449251,0 V 45.557412 H 112.64816 V -19.925732 H 86.474286 v -10.074327"
             id="path2034"
             sodipodi:nodetypes="cccccccccccc" />
          <path
             id="rect2610"
             style="fill:none;stroke:#000000;stroke-width:0.687871;stop-color:#000000"
             d="m -47.368995,-84.382446 v 13.265575 m -2.872081,-0.727996 V -83.65445 m -2.872081,0.727995 v 10.353593 m -2.872081,-0.727996 v -8.897601 m -2.872081,0.727995 v 7.441611"
             sodipodi:nodetypes="cccccccccc"
             transform="matrix(0,-1,-1,0,0,0)" />
          <path
             id="path4909"
             style="fill:none;stroke:#000000;stroke-width:0.687871;stop-color:#000000"
             d="M 84.382446,-16.126227 H 71.116871 m 0.727996,-2.872081 H 83.65445 m -0.727995,-2.872081 H 72.572862 m 0.727996,-2.872081 h 8.897601 m -0.727995,-2.87208 h -7.441611"
             sodipodi:nodetypes="cccccccccc" />
          <path
             id="rect4933"
             style="fill:none;stroke:#000000;stroke-width:0.687869;stop-color:#000000"
             d="m 69.352922,-19.925727 v 6.523394 h 16.793466 v -6.523394"
             sodipodi:nodetypes="cccc" />
        </g>
      </g>
    </g>
  </g>
</svg>
