<?xml version="1.0" encoding="UTF-8" standalone="no"?>
<!-- Created with Inkscape (http://www.inkscape.org/) -->

<svg
   width="132.82454mm"
   height="183.13205mm"
   viewBox="-46.366 -53.116 182.732 96.257"
   version="1.1"
   id="svg5"
   inkscape:version="1.1.2 (0a00cf5339, 2022-02-04)"
   sodipodi:docname="tile1.svg"
   xmlns:inkscape="http://www.inkscape.org/namespaces/inkscape"
   xmlns:sodipodi="http://sodipodi.sourceforge.net/DTD/sodipodi-0.dtd"
   xmlns="http://www.w3.org/2000/svg"
   xmlns:svg="http://www.w3.org/2000/svg">
  <sodipodi:namedview
     id="namedview7"
     pagecolor="#ffffff"
     bordercolor="#666666"
     borderopacity="1.0"
     inkscape:pageshadow="2"
     inkscape:pageopacity="0.0"
     inkscape:pagecheckerboard="0"
     inkscape:document-units="mm"
     showgrid="true"
     inkscape:snap-bbox="true"
     inkscape:snap-center="true"
     fit-margin-top="0.2"
     lock-margins="true"
     fit-margin-left="0.2"
     fit-margin-right="0.2"
     fit-margin-bottom="0.2"
     inkscape:zoom="1.9426985"
     inkscape:cx="277.19175"
     inkscape:cy="368.81688"
     inkscape:window-width="1850"
     inkscape:window-height="1016"
     inkscape:window-x="1990"
     inkscape:window-y="27"
     inkscape:window-maximized="1"
     inkscape:current-layer="dungeon"
     inkscape:snap-page="true"
     inkscape:snap-grids="false">
    <inkscape:grid
       type="axonomgrid"
       id="grid826"
       empcolor="#03ff92"
       empopacity="0.25098039"
       empspacing="6"
       spacingy="3.333331"
       originx="136.36608"
       originy="50.033841"
       gridanglex="60"
       gridanglez="60" />
  </sodipodi:namedview>
  <defs
     id="defs2" />
  <g
     inkscape:label="Layer 1"
     inkscape:groupmode="layer"
     id="layer1"
     transform="translate(-24.414737,76.566026)">
    <g
       id="g1594"
       inkscape:transform-center-x="-38.971142"
       inkscape:transform-center-y="-44.999997">
      <g
         id="g443"
         transform="matrix(0,-1,-1,0,84.414762,27.357029)"
         inkscape:transform-center-x="2.3241212"
         inkscape:transform-center-y="12.990389">
        <path
           style="opacity:1;fill:#e6e6e6;stroke:none;stroke-width:2;stroke-opacity:1;stop-color:#000000"
           d="m 103.92354,60.786574 26.20784,45.393316 26.20784,-15.131106 0,-60.52442 -26.20784,-15.131104 26.20784,-45.393315 -26.20784,-45.393315 -26.20784,15.131105 0,30.26221 H 51.507851 l -26.207842,45.393315 26.207842,15.131104 0,30.26221 z"
           id="border"
           sodipodi:nodetypes="cccccccccccccc" />
        <path
           style="fill:#0000ff;stroke:none;stroke-width:2.06361;stop-color:#000000"
           d="M 130.09741,15.334427 25.980762,14.999996 51.961524,29.999997 156.07817,30.334428 Z"
           id="path998"
           sodipodi:nodetypes="ccccc" />
        <g
           id="dungeon">
          <path
             id="path1496"
             style="opacity:1;fill:#ffffff;stroke:none;stroke-width:1;stroke-opacity:1;stop-color:#000000"
             d="M 69.025035,60.668909 69.282031,20 34.126535,0.22293308 42.786787,-14.777067 69.282031,0 69.025035,-30.000055 H 86.345544 L 86.60254,-10 121.24355,-30 v -20 l 17.57849,-10.223043 8.66026,14.999999 -8.91824,5.223045 V -20 l 8.91824,5.222933 L 138.82204,0.22293308 121.24355,-10 86.60254,10 138.56406,39.999999 v 39.999999 l -17.25565,10.780404 -8.66025,-14.999999 8.59539,-5.780404 V 50 L 86.60254,30 86.474285,60.668909"
             sodipodi:nodetypes="cccccccccccccccccccccccccc" />
          <path
             id="path627"
             style="opacity:1;fill:none;stroke:#000000;stroke-width:1.37574;stroke-opacity:1;stop-color:#000000"
             d="M 69.025035,60.668909 V 20.371592 L 34.126535,0.22293308 M 42.786787,-14.777067 69.025035,0.22293308 V -30.000055 m 17.320509,0 0.256996,20.0000552 34.77025,-20.0000552 0,-20.148659 17.44925,-10.074329 m 8.66026,14.999999 -8.789,5.074331 L 138.56406,-20 l 8.91824,5.222933 M 138.82204,0.22293308 121.37279,-10.000055 86.345544,10.222933 138.6933,40.594579 v 40.148659 l -17.38489,10.037164 m -8.66025,-14.999999 8.72463,-5.037164 V 50.59458 L 86.345544,30.371592 v 30.297317"
             sodipodi:nodetypes="cccccccccccccccccccccccccc" />
        </g>
      </g>
    </g>
  </g>
</svg>
